<?xml version="1.0" standalone="no"?>
<!DOCTYPE svg PUBLIC "-//W3C//DTD SVG 20010904//EN"
 "http://www.w3.org/TR/2001/REC-SVG-20010904/DTD/svg10.dtd">
<svg version="1.0" xmlns="http://www.w3.org/2000/svg"
 width="246.000000pt" height="424.000000pt" viewBox="0 0 246.000000 424.000000"
 preserveAspectRatio="xMidYMid meet">
<metadata>
Created by potrace 1.16, written by Peter Selinger 2001-2019
</metadata>
<g transform="translate(0.000000,424.000000) scale(0.100000,-0.100000)"
fill="#000000" stroke="none">
<path d="M700 4130 c0 -5 -6 -10 -14 -10 -16 0 -29 -41 -20 -64 3 -9 13 -16
21 -16 8 0 12 -4 8 -9 -3 -5 2 -16 10 -24 8 -9 15 -26 15 -39 0 -15 8 -27 23
-33 17 -8 23 -20 25 -52 4 -58 32 -61 32 -4 0 43 13 53 48 38 24 -11 28 -22
12 -32 -16 -10 -11 -37 8 -41 19 -5 52 -56 52 -80 0 -8 -13 -20 -30 -25 -16
-6 -32 -19 -35 -30 -5 -13 -16 -19 -38 -19 -32 0 -46 -11 -128 -99 l-31 -34 4
-138 c3 -127 2 -139 -14 -139 -9 0 -22 -9 -28 -19 -8 -16 -6 -22 7 -30 11 -6
13 -11 5 -11 -20 0 -12 -125 8 -125 25 -1 39 -14 35 -35 -4 -22 10 -28 18 -7
4 10 6 10 6 0 1 -10 29 -13 106 -13 l105 0 0 76 c0 43 -4 73 -9 69 -10 -6 -41
21 -41 36 0 5 55 9 125 9 l125 0 0 25 c0 20 5 25 25 25 20 0 25 5 25 25 0 20
5 25 25 25 20 0 25 5 25 25 0 20 5 25 25 25 24 0 25 2 25 69 0 38 2 76 5 84 4
8 -5 25 -19 38 -14 13 -26 28 -26 33 0 19 -83 87 -112 93 -17 3 -39 14 -50 25
-12 12 -33 18 -64 18 l-46 0 6 45 c8 51 1 85 -18 85 -6 0 -12 8 -13 18 -5 49
-17 82 -29 82 -8 0 -14 9 -14 20 0 11 -8 24 -17 27 -10 4 -26 17 -36 30 -10
13 -25 23 -33 23 -8 0 -13 3 -12 8 3 17 -16 42 -33 42 -10 0 -19 5 -19 10 0 6
-7 10 -15 10 -8 0 -15 -4 -15 -10z m364 -464 c4 -15 14 -26 28 -28 20 -3 23
-10 26 -55 l4 -53 -56 0 c-53 0 -56 1 -56 25 l0 25 -100 0 -100 0 0 25 0 25
100 0 c98 0 100 0 100 23 0 28 7 37 31 37 10 0 19 -10 23 -24z"/>
<path d="M1520 3959 c0 -5 -5 -7 -11 -4 -6 4 -13 -2 -16 -14 -3 -12 -9 -21
-14 -21 -5 0 -9 -7 -9 -15 0 -9 -11 -21 -25 -27 -20 -9 -25 -18 -25 -49 0 -21
5 -41 11 -45 6 -3 9 -17 6 -30 -3 -16 0 -24 9 -24 8 0 14 11 14 25 0 20 5 25
25 25 24 0 25 3 25 55 0 48 2 55 20 55 13 0 20 7 20 19 0 23 13 28 64 25 36
-2 60 -19 50 -36 -3 -4 7 -10 21 -14 15 -4 25 -13 25 -23 0 -23 9 -31 26 -24
19 7 18 33 -1 33 -8 0 -14 3 -14 8 3 19 -2 33 -11 27 -5 -3 -10 -1 -10 4 0 6
-7 11 -17 11 -9 0 -13 3 -10 6 3 4 2 15 -3 24 -8 14 -24 18 -80 19 -43 1 -70
-3 -70 -10z"/>
<path d="M1400 3685 c0 -22 -6 -38 -15 -41 -8 -4 -15 -15 -15 -25 0 -10 -5
-19 -11 -19 -7 0 -9 -19 -4 -59 6 -56 6 -60 -16 -63 -18 -2 -23 -11 -26 -45
-4 -40 -2 -43 22 -43 22 0 25 3 19 25 -5 22 -3 25 19 25 19 0 26 6 29 22 2 14
12 24 28 28 21 5 25 11 25 45 0 35 -3 40 -25 44 -25 3 -40 17 -40 36 0 6 5 3
10 -5 7 -11 10 3 10 48 0 34 -2 62 -5 62 -3 0 -5 -16 -5 -35z"/>
<path d="M1710 3605 c0 -20 -5 -25 -25 -25 -20 0 -25 -5 -25 -25 0 -20 -5 -25
-25 -25 -20 0 -25 -5 -25 -25 0 -24 -2 -25 -70 -25 -62 0 -70 -2 -70 -19 0
-16 9 -20 58 -23 31 -2 85 -2 120 1 52 3 62 6 62 21 0 15 11 20 53 25 28 4 75
5 102 3 46 -3 50 -5 47 -26 -4 -24 -2 -24 72 -20 l76 3 0 -27 c0 -20 6 -27 23
-30 32 -4 37 -53 6 -61 -30 -8 -39 -1 -39 29 0 23 -2 24 -75 24 -73 0 -75 1
-75 25 0 25 -1 25 -82 25 -87 0 -111 -7 -106 -31 2 -11 -13 -15 -67 -17 -63
-3 -84 -11 -85 -34 0 -5 11 -8 24 -8 18 0 25 -6 28 -22 2 -17 10 -23 28 -23
20 0 24 -5 24 -30 0 -27 -3 -30 -29 -30 -23 0 -31 5 -33 23 -2 14 -10 22 -22
22 -12 0 -20 8 -22 23 -3 19 -9 22 -50 21 -27 0 -49 3 -49 8 -1 4 -3 13 -4 18
-1 6 -3 15 -4 20 0 6 -21 10 -46 10 l-45 0 2 -45 c1 -42 3 -45 28 -45 21 0 26
-5 26 -22 -1 -18 5 -24 27 -26 24 -3 26 -7 21 -29 -7 -25 -6 -25 45 -22 l51 4
0 -31 c0 -26 -4 -31 -22 -30 -20 1 -23 -4 -26 -46 -3 -46 -2 -48 22 -48 21 0
26 -5 26 -25 0 -24 2 -25 75 -25 73 0 75 1 75 25 0 20 5 25 25 25 23 0 25 3
25 50 0 43 3 50 19 50 13 0 21 8 23 23 3 19 8 22 41 20 21 -1 36 1 33 5 -4 7
71 5 111 -3 12 -3 25 -14 28 -25 10 -31 68 -27 89 5 13 20 25 25 55 25 37 0
39 1 43 38 3 20 8 44 12 54 11 24 -61 98 -75 77 -8 -10 -9 -9 -5 7 4 13 -1 27
-14 39 -11 10 -20 29 -20 42 0 14 -13 38 -29 54 -26 26 -36 29 -90 29 -48 0
-63 4 -74 20 -11 16 -27 20 -93 22 -79 3 -79 3 -79 31 1 15 -5 27 -12 27 -7 0
-13 -11 -13 -25z"/>
<path d="M1160 3001 c0 -23 -4 -28 -18 -24 -16 4 -19 -2 -20 -28 0 -19 4 -39
10 -46 7 -8 7 -13 0 -13 -5 0 -9 -11 -9 -25 0 -20 4 -24 26 -23 14 1 29 7 33
13 5 6 8 6 8 -2 0 -9 19 -13 60 -13 57 0 60 1 60 25 0 20 5 25 26 25 24 0 25
2 22 48 -3 40 -6 47 -25 50 -15 2 -23 10 -23 23 0 17 -8 19 -75 19 l-75 0 0
-29z"/>
<path d="M777 2983 c-12 -3 -17 -11 -14 -23 4 -15 -3 -19 -39 -25 -24 -3 -44
-7 -44 -8 -13 -61 -11 -79 9 -84 14 -3 21 -13 21 -29 0 -23 3 -24 75 -24 73 0
75 1 75 25 0 20 5 25 25 25 24 0 25 2 25 69 l0 68 -37 7 c-42 6 -68 6 -96 -1z"/>
<path d="M518 2863 c-2 -20 -9 -29 -24 -31 -23 -3 -34 -40 -34 -110 l0 -33 73
3 c66 3 72 5 75 26 3 17 10 22 31 22 27 0 28 2 30 50 1 46 -1 50 -23 50 -18 0
-25 6 -28 23 -3 19 -10 22 -50 25 -44 3 -47 2 -50 -25z"/>
<path d="M1664 2881 c-2 -2 -4 -47 -4 -98 l0 -94 92 3 c79 3 93 6 96 21 2 10
-3 17 -12 17 -10 0 -13 -6 -10 -17 5 -15 4 -15 -7 1 -6 10 -12 42 -13 70 -1
45 -4 51 -23 54 -15 2 -23 10 -23 23 0 10 -6 20 -12 21 -30 3 -80 3 -84 -1z"/>
<path d="M943 2733 c-13 -2 -23 -13 -25 -26 -2 -14 -11 -23 -25 -25 -13 -2
-23 -7 -23 -12 0 -5 8 -7 18 -4 16 5 16 5 0 -6 -19 -12 -27 -87 -8 -75 14 8
13 -8 -1 -22 -9 -9 -7 -10 10 -6 12 3 21 1 21 -6 0 -6 13 -11 29 -11 20 0 32
-6 36 -19 3 -10 14 -21 24 -24 11 -2 21 -15 23 -28 3 -22 8 -24 72 -27 l69 -3
-5 26 c-3 14 0 25 6 26 6 1 18 2 26 3 12 1 16 18 18 74 3 71 3 72 -23 72 -20
0 -25 5 -25 25 0 20 -5 25 -25 25 -20 0 -25 5 -25 24 0 22 -3 23 -72 23 -40 1
-83 -1 -95 -4z"/>
<path d="M660 2665 c0 -20 -5 -25 -25 -25 -24 0 -25 -2 -25 -75 l0 -75 34 0
c28 0 33 -3 29 -19 -3 -13 2 -20 19 -24 45 -13 58 -8 58 18 0 20 6 27 30 32
27 5 30 9 30 43 0 31 -3 38 -17 36 -25 -4 -33 12 -33 67 l0 47 -50 0 c-47 0
-50 -2 -50 -25z"/>
<path d="M1764 2631 c-2 -2 -4 -24 -4 -48 0 -36 -3 -43 -20 -43 -15 0 -20 -7
-20 -25 0 -23 4 -25 45 -25 41 0 45 -2 45 -25 0 -24 2 -25 74 -25 l73 0 2 75
c2 74 2 75 -23 75 -21 0 -26 5 -26 26 0 25 -1 25 -71 22 -38 -1 -72 -4 -75 -7z"/>
<path d="M470 2530 c0 -43 -3 -50 -20 -50 -19 0 -20 -7 -20 -110 0 -88 3 -114
17 -129 9 -11 19 -18 23 -16 3 2 5 -21 3 -51 -2 -50 1 -57 33 -89 32 -32 39
-35 95 -35 52 0 60 2 57 18 -2 10 -14 18 -30 20 -19 2 -25 8 -21 21 3 13 -2
20 -21 25 -24 6 -26 11 -26 56 0 47 -2 50 -25 50 -24 0 -25 2 -25 69 0 46 -4
71 -12 74 -7 2 4 8 25 12 37 7 38 8 35 48 -3 37 -5 40 -37 44 -36 3 -56 13
-28 13 13 0 17 9 17 40 0 33 -3 40 -20 40 -17 0 -20 -7 -20 -50z"/>
<path d="M1460 2459 c0 -16 -4 -28 -9 -24 -17 10 -41 -26 -41 -63 0 -73 7 -82
60 -82 39 0 48 -3 46 -17 -1 -14 8 -19 38 -21 43 -4 62 13 43 37 -10 12 -9 13
2 6 11 -6 13 -4 7 10 -6 18 -6 18 12 2 25 -22 32 -13 32 41 0 39 -2 44 -19 39
-16 -4 -21 1 -23 22 -2 18 -10 27 -25 29 -17 3 -23 10 -23 28 0 22 -4 24 -50
24 -49 0 -50 -1 -50 -31z"/>
<path d="M610 2340 c0 -43 3 -52 23 -60 17 -7 18 -9 5 -9 -26 -1 -22 -19 5
-23 14 -2 23 -11 25 -25 3 -21 8 -23 73 -23 54 0 69 3 69 15 0 10 -17 15 -67
18 -60 3 -58 3 25 5 l92 2 0 50 c0 47 -2 50 -25 50 -20 0 -25 5 -25 25 l0 25
-100 0 -100 0 0 -50z"/>
<path d="M920 2165 c0 -20 -5 -25 -25 -25 -20 0 -25 -5 -25 -25 0 -20 -5 -25
-25 -25 -24 0 -25 -2 -25 -69 0 -72 6 -86 34 -75 11 4 16 19 16 50 l0 44 45 0
c25 0 46 5 47 10 0 6 1 16 2 23 1 8 26 14 75 17 67 5 74 7 77 28 3 19 -1 22
-26 22 -25 0 -30 4 -30 25 0 24 -2 25 -70 25 -68 0 -70 -1 -70 -25z"/>
</g>
</svg>
